<?xml version="1.0" standalone="no"?>
<!DOCTYPE svg PUBLIC "-//W3C//DTD SVG 20010904//EN"
 "http://www.w3.org/TR/2001/REC-SVG-20010904/DTD/svg10.dtd">
<svg version="1.0" xmlns="http://www.w3.org/2000/svg"
 width="512.000000pt" height="512.000000pt" viewBox="0 0 512.000000 512.000000"
 preserveAspectRatio="xMidYMid meet">
<metadata>
Created by potrace 1.11, written by Peter Selinger 2001-2013
</metadata>
<g transform="translate(0.000000,512.000000) scale(0.100000,-0.100000)"
fill="#000000" stroke="none">
<path d="M3082 4077 c-243 -243 -442 -445 -442 -450 0 -4 172 -7 382 -7 l383
0 -505 -505 -505 -505 453 0 c248 0 452 -3 452 -7 0 -5 -244 -252 -542 -550
l-543 -543 573 0 572 0 0 -365 0 -365 170 0 170 0 0 365 0 365 565 0 c311 0
565 3 565 7 0 5 -244 252 -542 550 l-543 543 460 0 460 1 -502 498 c-277 274
-503 501 -503 505 0 3 171 7 380 8 l380 3 -447 448 -448 447 -443 -443z"/>
<path d="M924 1957 c-3 -8 -4 -54 -2 -103 l3 -89 63 -3 c34 -2 62 -7 62 -12 0
-12 -158 -979 -165 -1007 -5 -23 -4 -23 99 -23 l104 0 17 113 c9 61 19 122 22
135 l5 22 327 0 327 0 18 -112 c27 -177 12 -158 130 -158 l102 0 -83 503 c-45
276 -83 510 -83 520 0 14 9 17 60 17 l60 0 0 105 0 105 -530 0 c-432 0 -532
-2 -536 -13z m775 -449 c23 -145 45 -273 48 -285 l5 -23 -291 0 c-255 0 -291
2 -291 15 0 17 77 496 85 533 5 22 6 22 204 22 l198 0 42 -262z"/>
</g>
</svg>
